<mxfile host="Electron" modified="2024-05-18T18:59:05.015Z" agent="Mozilla/5.0 (Windows NT 10.0; Win64; x64) AppleWebKit/537.36 (KHTML, like Gecko) draw.io/23.1.5 Chrome/120.0.6099.109 Electron/28.1.0 Safari/537.36" etag="4TtWUtbPvZFMQrFVxw04" version="23.1.5" type="device">
  <diagram name="Strona-1" id="lvSeRRZlhSKGtd9-QR-l">
    <mxGraphModel dx="728" dy="483" grid="1" gridSize="10" guides="1" tooltips="1" connect="1" arrows="1" fold="1" page="1" pageScale="1" pageWidth="583" pageHeight="413" math="0" shadow="0">
      <root>
        <mxCell id="0" />
        <mxCell id="1" parent="0" />
        <mxCell id="0K5I_2ZGSOi5SH-CKBbU-1" value="" style="rounded=0;whiteSpace=wrap;html=1;" parent="1" vertex="1">
          <mxGeometry x="230" width="350" height="410" as="geometry" />
        </mxCell>
        <mxCell id="6lewU3z685MohC7zJiph-52" value="pow2&lt;br&gt;&amp;nbsp; &amp;nbsp;_1&lt;br&gt;&lt;br&gt;&lt;div&gt;&lt;br&gt;&lt;/div&gt;&lt;div&gt;&lt;br&gt;&lt;/div&gt;&lt;div&gt;&lt;br&gt;&lt;/div&gt;" style="rounded=0;whiteSpace=wrap;html=1;align=left;" parent="1" vertex="1">
          <mxGeometry x="380" y="140" width="100" height="90" as="geometry" />
        </mxCell>
        <mxCell id="6lewU3z685MohC7zJiph-6" style="edgeStyle=orthogonalEdgeStyle;rounded=0;orthogonalLoop=1;jettySize=auto;html=1;exitX=0;exitY=0.5;exitDx=0;exitDy=0;shape=flexArrow;fillColor=#1ba1e2;strokeColor=#006EAF;" parent="1" source="6lewU3z685MohC7zJiph-1" edge="1">
          <mxGeometry relative="1" as="geometry">
            <mxPoint y="103" as="targetPoint" />
          </mxGeometry>
        </mxCell>
        <mxCell id="6lewU3z685MohC7zJiph-1" value="DMA" style="rounded=0;whiteSpace=wrap;html=1;" parent="1" vertex="1">
          <mxGeometry x="40" y="73.25" width="60" height="60" as="geometry" />
        </mxCell>
        <mxCell id="6lewU3z685MohC7zJiph-2" value="loader" style="rounded=0;whiteSpace=wrap;html=1;" parent="1" vertex="1">
          <mxGeometry x="150" y="310" width="80" height="60" as="geometry" />
        </mxCell>
        <mxCell id="6lewU3z685MohC7zJiph-5" value="" style="shape=flexArrow;endArrow=classic;html=1;rounded=0;entryX=1;entryY=0.5;entryDx=0;entryDy=0;exitX=0;exitY=0.5;exitDx=0;exitDy=0;" parent="1" source="6lewU3z685MohC7zJiph-84" target="6lewU3z685MohC7zJiph-1" edge="1">
          <mxGeometry x="0.2129" y="40" width="50" height="50" relative="1" as="geometry">
            <mxPoint x="330" y="220" as="sourcePoint" />
            <mxPoint x="380" y="170" as="targetPoint" />
            <mxPoint as="offset" />
          </mxGeometry>
        </mxCell>
        <mxCell id="6lewU3z685MohC7zJiph-9" value="start_addr" style="edgeStyle=orthogonalEdgeStyle;rounded=0;orthogonalLoop=1;jettySize=auto;html=1;exitX=1;exitY=0.5;exitDx=0;exitDy=0;entryX=0.5;entryY=1;entryDx=0;entryDy=0;strokeWidth=2;" parent="1" source="6lewU3z685MohC7zJiph-8" target="6lewU3z685MohC7zJiph-2" edge="1">
          <mxGeometry x="-0.3339" y="10" relative="1" as="geometry">
            <mxPoint as="offset" />
          </mxGeometry>
        </mxCell>
        <mxCell id="6lewU3z685MohC7zJiph-10" value="init" style="edgeStyle=orthogonalEdgeStyle;rounded=0;orthogonalLoop=1;jettySize=auto;html=1;exitX=1;exitY=1;exitDx=0;exitDy=0;entryX=0.75;entryY=1;entryDx=0;entryDy=0;" parent="1" source="6lewU3z685MohC7zJiph-8" target="6lewU3z685MohC7zJiph-2" edge="1">
          <mxGeometry x="0.5" y="-10" relative="1" as="geometry">
            <Array as="points">
              <mxPoint x="210" y="400" />
            </Array>
            <mxPoint as="offset" />
          </mxGeometry>
        </mxCell>
        <mxCell id="6lewU3z685MohC7zJiph-97" value="irq" style="edgeStyle=orthogonalEdgeStyle;rounded=0;orthogonalLoop=1;jettySize=auto;html=1;exitX=0;exitY=0.5;exitDx=0;exitDy=0;" parent="1" source="6lewU3z685MohC7zJiph-8" edge="1">
          <mxGeometry x="0.3288" y="-20" relative="1" as="geometry">
            <mxPoint x="10" y="389.89830508474574" as="targetPoint" />
            <mxPoint as="offset" />
          </mxGeometry>
        </mxCell>
        <mxCell id="6lewU3z685MohC7zJiph-8" value="regs" style="rounded=0;whiteSpace=wrap;html=1;" parent="1" vertex="1">
          <mxGeometry x="40" y="380" width="80" height="20" as="geometry" />
        </mxCell>
        <mxCell id="6lewU3z685MohC7zJiph-11" value="hamming_window&lt;br&gt;&lt;br&gt;&lt;br&gt;&lt;br&gt;&lt;div&gt;&lt;br&gt;&lt;/div&gt;&lt;div&gt;&lt;br&gt;&lt;/div&gt;" style="rounded=0;whiteSpace=wrap;html=1;" parent="1" vertex="1">
          <mxGeometry x="271" y="310" width="120" height="90" as="geometry" />
        </mxCell>
        <mxCell id="6lewU3z685MohC7zJiph-15" style="edgeStyle=orthogonalEdgeStyle;rounded=0;orthogonalLoop=1;jettySize=auto;html=1;exitX=0.5;exitY=0;exitDx=0;exitDy=0;entryX=0.5;entryY=1;entryDx=0;entryDy=0;" parent="1" source="6lewU3z685MohC7zJiph-12" target="6lewU3z685MohC7zJiph-14" edge="1">
          <mxGeometry relative="1" as="geometry" />
        </mxCell>
        <mxCell id="6lewU3z685MohC7zJiph-12" value="hamming_ window_ array" style="rounded=0;whiteSpace=wrap;html=1;" parent="1" vertex="1">
          <mxGeometry x="286" y="370" width="90" height="40" as="geometry" />
        </mxCell>
        <mxCell id="6lewU3z685MohC7zJiph-13" style="edgeStyle=orthogonalEdgeStyle;rounded=0;orthogonalLoop=1;jettySize=auto;html=1;exitX=1;exitY=0.5;exitDx=0;exitDy=0;entryX=0;entryY=0.5;entryDx=0;entryDy=0;strokeWidth=2;" parent="1" source="6lewU3z685MohC7zJiph-2" target="6lewU3z685MohC7zJiph-14" edge="1">
          <mxGeometry relative="1" as="geometry">
            <Array as="points">
              <mxPoint x="230" y="345" />
            </Array>
          </mxGeometry>
        </mxCell>
        <mxCell id="6lewU3z685MohC7zJiph-54" style="edgeStyle=orthogonalEdgeStyle;rounded=0;orthogonalLoop=1;jettySize=auto;html=1;exitX=1;exitY=0.5;exitDx=0;exitDy=0;entryX=0.75;entryY=1;entryDx=0;entryDy=0;strokeWidth=2;" parent="1" source="6lewU3z685MohC7zJiph-14" target="6lewU3z685MohC7zJiph-53" edge="1">
          <mxGeometry relative="1" as="geometry" />
        </mxCell>
        <mxCell id="6lewU3z685MohC7zJiph-14" value="X" style="ellipse;whiteSpace=wrap;html=1;" parent="1" vertex="1">
          <mxGeometry x="316.5" y="330" width="29" height="30" as="geometry" />
        </mxCell>
        <mxCell id="6lewU3z685MohC7zJiph-18" value="fft&lt;br&gt;&lt;div&gt;&lt;br&gt;&lt;/div&gt;&lt;div&gt;&lt;br&gt;&lt;/div&gt;&lt;div&gt;&lt;br&gt;&lt;/div&gt;&lt;div&gt;&lt;br&gt;&lt;/div&gt;&lt;div&gt;&lt;br&gt;&lt;/div&gt;&lt;div&gt;&lt;br&gt;&lt;/div&gt;&lt;div&gt;&lt;br&gt;&lt;/div&gt;&lt;div&gt;&lt;br&gt;&lt;/div&gt;&lt;div&gt;&lt;br&gt;&lt;/div&gt;&lt;div&gt;&lt;br&gt;&lt;/div&gt;" style="rounded=0;whiteSpace=wrap;html=1;" parent="1" vertex="1">
          <mxGeometry x="410" y="240" width="165" height="160" as="geometry" />
        </mxCell>
        <mxCell id="6lewU3z685MohC7zJiph-19" value="FFT_RAM (2 kB)" style="rounded=0;whiteSpace=wrap;html=1;" parent="1" vertex="1">
          <mxGeometry x="430" y="370" width="130" height="30" as="geometry" />
        </mxCell>
        <mxCell id="6lewU3z685MohC7zJiph-21" value="dft_top" style="rounded=0;whiteSpace=wrap;html=1;fillColor=#1ba1e2;fontColor=#ffffff;strokeColor=#006EAF;" parent="1" vertex="1">
          <mxGeometry x="490" y="290" width="70" height="75" as="geometry" />
        </mxCell>
        <mxCell id="6lewU3z685MohC7zJiph-24" style="edgeStyle=orthogonalEdgeStyle;rounded=0;orthogonalLoop=1;jettySize=auto;html=1;exitX=1;exitY=0.5;exitDx=0;exitDy=0;entryX=0.069;entryY=0.836;entryDx=0;entryDy=0;entryPerimeter=0;strokeWidth=2;" parent="1" source="6lewU3z685MohC7zJiph-14" target="6lewU3z685MohC7zJiph-23" edge="1">
          <mxGeometry relative="1" as="geometry">
            <Array as="points">
              <mxPoint x="430" y="345" />
            </Array>
          </mxGeometry>
        </mxCell>
        <mxCell id="6lewU3z685MohC7zJiph-25" style="edgeStyle=orthogonalEdgeStyle;rounded=0;orthogonalLoop=1;jettySize=auto;html=1;exitX=0.5;exitY=1;exitDx=0;exitDy=0;entryX=0.168;entryY=0.04;entryDx=0;entryDy=0;entryPerimeter=0;" parent="1" source="6lewU3z685MohC7zJiph-23" target="6lewU3z685MohC7zJiph-19" edge="1">
          <mxGeometry relative="1" as="geometry" />
        </mxCell>
        <mxCell id="6lewU3z685MohC7zJiph-40" value="real" style="edgeStyle=orthogonalEdgeStyle;rounded=0;orthogonalLoop=1;jettySize=auto;html=1;exitX=0;exitY=0.25;exitDx=0;exitDy=0;strokeWidth=2;" parent="1" source="6lewU3z685MohC7zJiph-23" edge="1">
          <mxGeometry x="0.3883" y="20" relative="1" as="geometry">
            <mxPoint x="419.9767441860465" y="190" as="targetPoint" />
            <mxPoint x="420" y="250" as="sourcePoint" />
            <Array as="points">
              <mxPoint x="420" y="278" />
            </Array>
            <mxPoint as="offset" />
          </mxGeometry>
        </mxCell>
        <mxCell id="6lewU3z685MohC7zJiph-41" value="imag" style="edgeStyle=orthogonalEdgeStyle;rounded=0;orthogonalLoop=1;jettySize=auto;html=1;exitX=0.75;exitY=0;exitDx=0;exitDy=0;strokeWidth=2;" parent="1" edge="1">
          <mxGeometry x="-0.0024" y="-20" relative="1" as="geometry">
            <mxPoint x="439.9767441860465" y="190" as="targetPoint" />
            <mxPoint x="440" y="250" as="sourcePoint" />
            <mxPoint as="offset" />
          </mxGeometry>
        </mxCell>
        <mxCell id="6lewU3z685MohC7zJiph-23" value="FSM" style="rounded=0;whiteSpace=wrap;html=1;dashed=1;dashPattern=8 8;" parent="1" vertex="1">
          <mxGeometry x="430" y="250" width="40" height="112.5" as="geometry" />
        </mxCell>
        <mxCell id="6lewU3z685MohC7zJiph-42" value="X" style="ellipse;whiteSpace=wrap;html=1;" parent="1" vertex="1">
          <mxGeometry x="410" y="170" width="20" height="20" as="geometry" />
        </mxCell>
        <mxCell id="6lewU3z685MohC7zJiph-43" value="X" style="ellipse;whiteSpace=wrap;html=1;" parent="1" vertex="1">
          <mxGeometry x="430" y="170" width="20" height="20" as="geometry" />
        </mxCell>
        <mxCell id="6lewU3z685MohC7zJiph-46" value="" style="endArrow=classic;html=1;rounded=0;entryX=-0.1;entryY=0.567;entryDx=0;entryDy=0;entryPerimeter=0;" parent="1" target="6lewU3z685MohC7zJiph-42" edge="1">
          <mxGeometry width="50" height="50" relative="1" as="geometry">
            <mxPoint x="420" y="210" as="sourcePoint" />
            <mxPoint x="350" y="230" as="targetPoint" />
            <Array as="points">
              <mxPoint x="390" y="210" />
              <mxPoint x="390" y="181" />
            </Array>
          </mxGeometry>
        </mxCell>
        <mxCell id="6lewU3z685MohC7zJiph-47" value="" style="endArrow=classic;html=1;rounded=0;entryX=1;entryY=0.5;entryDx=0;entryDy=0;" parent="1" target="6lewU3z685MohC7zJiph-43" edge="1">
          <mxGeometry width="50" height="50" relative="1" as="geometry">
            <mxPoint x="440" y="210" as="sourcePoint" />
            <mxPoint x="350" y="230" as="targetPoint" />
            <Array as="points">
              <mxPoint x="470" y="210" />
              <mxPoint x="470" y="180" />
            </Array>
          </mxGeometry>
        </mxCell>
        <mxCell id="6lewU3z685MohC7zJiph-51" style="edgeStyle=orthogonalEdgeStyle;rounded=0;orthogonalLoop=1;jettySize=auto;html=1;exitX=0.5;exitY=0;exitDx=0;exitDy=0;strokeWidth=2;entryX=0.5;entryY=1;entryDx=0;entryDy=0;" parent="1" source="6lewU3z685MohC7zJiph-49" target="6lewU3z685MohC7zJiph-66" edge="1">
          <mxGeometry relative="1" as="geometry">
            <mxPoint x="430.1111111111111" y="110.00000000000006" as="targetPoint" />
          </mxGeometry>
        </mxCell>
        <mxCell id="6lewU3z685MohC7zJiph-49" value="+" style="ellipse;whiteSpace=wrap;html=1;" parent="1" vertex="1">
          <mxGeometry x="420" y="150" width="20" height="20" as="geometry" />
        </mxCell>
        <mxCell id="6lewU3z685MohC7zJiph-53" value="zcr" style="rounded=0;whiteSpace=wrap;html=1;" parent="1" vertex="1">
          <mxGeometry x="320" y="260" width="80" height="30" as="geometry" />
        </mxCell>
        <mxCell id="6lewU3z685MohC7zJiph-57" value="pow2&lt;br&gt;&amp;nbsp; &amp;nbsp;_2&lt;br&gt;&lt;div&gt;&lt;br&gt;&lt;/div&gt;&lt;div&gt;&lt;br&gt;&lt;/div&gt;&lt;div&gt;&lt;br&gt;&lt;/div&gt;" style="rounded=0;whiteSpace=wrap;html=1;align=left;" parent="1" vertex="1">
          <mxGeometry x="483" y="140" width="100" height="90" as="geometry" />
        </mxCell>
        <mxCell id="6lewU3z685MohC7zJiph-58" value="real" style="edgeStyle=orthogonalEdgeStyle;rounded=0;orthogonalLoop=1;jettySize=auto;html=1;exitX=1;exitY=0.25;exitDx=0;exitDy=0;strokeWidth=2;" parent="1" source="6lewU3z685MohC7zJiph-71" edge="1">
          <mxGeometry x="0.517" y="23" relative="1" as="geometry">
            <mxPoint x="522.9767441860465" y="190" as="targetPoint" />
            <mxPoint x="523" y="250" as="sourcePoint" />
            <mxPoint as="offset" />
          </mxGeometry>
        </mxCell>
        <mxCell id="6lewU3z685MohC7zJiph-59" value="imag" style="edgeStyle=orthogonalEdgeStyle;rounded=0;orthogonalLoop=1;jettySize=auto;html=1;exitX=1;exitY=0.25;exitDx=0;exitDy=0;strokeWidth=2;" parent="1" source="6lewU3z685MohC7zJiph-23" edge="1">
          <mxGeometry x="0.6275" y="-17" relative="1" as="geometry">
            <mxPoint x="542.9767441860465" y="190" as="targetPoint" />
            <mxPoint x="543" y="250" as="sourcePoint" />
            <mxPoint as="offset" />
          </mxGeometry>
        </mxCell>
        <mxCell id="6lewU3z685MohC7zJiph-60" value="X" style="ellipse;whiteSpace=wrap;html=1;" parent="1" vertex="1">
          <mxGeometry x="513" y="170" width="20" height="20" as="geometry" />
        </mxCell>
        <mxCell id="6lewU3z685MohC7zJiph-61" value="X" style="ellipse;whiteSpace=wrap;html=1;" parent="1" vertex="1">
          <mxGeometry x="533" y="170" width="20" height="20" as="geometry" />
        </mxCell>
        <mxCell id="6lewU3z685MohC7zJiph-62" value="" style="endArrow=classic;html=1;rounded=0;entryX=-0.1;entryY=0.567;entryDx=0;entryDy=0;entryPerimeter=0;" parent="1" target="6lewU3z685MohC7zJiph-60" edge="1">
          <mxGeometry width="50" height="50" relative="1" as="geometry">
            <mxPoint x="523" y="210" as="sourcePoint" />
            <mxPoint x="453" y="230" as="targetPoint" />
            <Array as="points">
              <mxPoint x="493" y="210" />
              <mxPoint x="493" y="181" />
            </Array>
          </mxGeometry>
        </mxCell>
        <mxCell id="6lewU3z685MohC7zJiph-63" value="" style="endArrow=classic;html=1;rounded=0;entryX=1;entryY=0.5;entryDx=0;entryDy=0;" parent="1" target="6lewU3z685MohC7zJiph-61" edge="1">
          <mxGeometry width="50" height="50" relative="1" as="geometry">
            <mxPoint x="543" y="210" as="sourcePoint" />
            <mxPoint x="453" y="230" as="targetPoint" />
            <Array as="points">
              <mxPoint x="573" y="210" />
              <mxPoint x="573" y="180" />
            </Array>
          </mxGeometry>
        </mxCell>
        <mxCell id="6lewU3z685MohC7zJiph-64" style="edgeStyle=orthogonalEdgeStyle;rounded=0;orthogonalLoop=1;jettySize=auto;html=1;exitX=0.5;exitY=0;exitDx=0;exitDy=0;strokeWidth=2;entryX=0.512;entryY=1.069;entryDx=0;entryDy=0;entryPerimeter=0;" parent="1" source="6lewU3z685MohC7zJiph-65" target="6lewU3z685MohC7zJiph-67" edge="1">
          <mxGeometry relative="1" as="geometry">
            <mxPoint x="533.1111111111111" y="110.00000000000006" as="targetPoint" />
          </mxGeometry>
        </mxCell>
        <mxCell id="6lewU3z685MohC7zJiph-65" value="+" style="ellipse;whiteSpace=wrap;html=1;" parent="1" vertex="1">
          <mxGeometry x="523" y="150" width="20" height="20" as="geometry" />
        </mxCell>
        <mxCell id="6lewU3z685MohC7zJiph-66" value="modulus_1&lt;br&gt;&lt;div&gt;&lt;br&gt;&lt;/div&gt;" style="rounded=0;whiteSpace=wrap;html=1;" parent="1" vertex="1">
          <mxGeometry x="390" y="80" width="80" height="40" as="geometry" />
        </mxCell>
        <mxCell id="6lewU3z685MohC7zJiph-67" value="modulus_2&lt;br&gt;&lt;div&gt;&lt;br&gt;&lt;/div&gt;" style="rounded=0;whiteSpace=wrap;html=1;" parent="1" vertex="1">
          <mxGeometry x="493" y="80" width="80" height="40" as="geometry" />
        </mxCell>
        <mxCell id="6lewU3z685MohC7zJiph-68" value="collector" style="rounded=0;whiteSpace=wrap;html=1;" parent="1" vertex="1">
          <mxGeometry x="420" y="30" width="120" height="30" as="geometry" />
        </mxCell>
        <mxCell id="6lewU3z685MohC7zJiph-70" value="z&lt;sub&gt;1&lt;/sub&gt;" style="rounded=0;whiteSpace=wrap;html=1;" parent="1" vertex="1">
          <mxGeometry x="430" y="250" width="20" height="40" as="geometry" />
        </mxCell>
        <mxCell id="6lewU3z685MohC7zJiph-71" value="z&lt;span style=&quot;font-size: 10px;&quot;&gt;2&lt;/span&gt;" style="rounded=0;whiteSpace=wrap;html=1;" parent="1" vertex="1">
          <mxGeometry x="450" y="250" width="20" height="40" as="geometry" />
        </mxCell>
        <mxCell id="6lewU3z685MohC7zJiph-73" style="edgeStyle=orthogonalEdgeStyle;rounded=0;orthogonalLoop=1;jettySize=auto;html=1;exitX=0.75;exitY=0;exitDx=0;exitDy=0;entryX=0.231;entryY=0.951;entryDx=0;entryDy=0;entryPerimeter=0;strokeWidth=2;" parent="1" source="6lewU3z685MohC7zJiph-66" target="6lewU3z685MohC7zJiph-68" edge="1">
          <mxGeometry relative="1" as="geometry" />
        </mxCell>
        <mxCell id="6lewU3z685MohC7zJiph-74" style="edgeStyle=orthogonalEdgeStyle;rounded=0;orthogonalLoop=1;jettySize=auto;html=1;exitX=0.5;exitY=0;exitDx=0;exitDy=0;entryX=0.934;entryY=0.985;entryDx=0;entryDy=0;entryPerimeter=0;strokeWidth=2;" parent="1" source="6lewU3z685MohC7zJiph-67" target="6lewU3z685MohC7zJiph-68" edge="1">
          <mxGeometry relative="1" as="geometry" />
        </mxCell>
        <mxCell id="6lewU3z685MohC7zJiph-75" value="mel_spect&lt;br&gt;&lt;br&gt;&lt;br&gt;&lt;div&gt;&lt;br/&gt;&lt;/div&gt;" style="rounded=0;whiteSpace=wrap;html=1;" parent="1" vertex="1">
          <mxGeometry x="256" y="30" width="120" height="80" as="geometry" />
        </mxCell>
        <mxCell id="6lewU3z685MohC7zJiph-76" style="edgeStyle=orthogonalEdgeStyle;rounded=0;orthogonalLoop=1;jettySize=auto;html=1;exitX=0;exitY=0.5;exitDx=0;exitDy=0;entryX=0.982;entryY=0.205;entryDx=0;entryDy=0;entryPerimeter=0;strokeWidth=2;" parent="1" source="6lewU3z685MohC7zJiph-68" target="6lewU3z685MohC7zJiph-75" edge="1">
          <mxGeometry relative="1" as="geometry">
            <Array as="points">
              <mxPoint x="420" y="46" />
              <mxPoint x="398" y="46" />
            </Array>
          </mxGeometry>
        </mxCell>
        <mxCell id="6lewU3z685MohC7zJiph-77" value="mel_spet_table" style="rounded=0;whiteSpace=wrap;html=1;" parent="1" vertex="1">
          <mxGeometry x="266" y="65" width="100" height="55" as="geometry" />
        </mxCell>
        <mxCell id="6lewU3z685MohC7zJiph-79" value="sqrt" style="rounded=0;whiteSpace=wrap;html=1;fillColor=#1ba1e2;fontColor=#ffffff;strokeColor=#006EAF;" parent="1" vertex="1">
          <mxGeometry x="410" y="100" width="40" height="20" as="geometry" />
        </mxCell>
        <mxCell id="6lewU3z685MohC7zJiph-80" value="sqrt" style="rounded=0;whiteSpace=wrap;html=1;fillColor=#1ba1e2;fontColor=#ffffff;strokeColor=#006EAF;" parent="1" vertex="1">
          <mxGeometry x="513" y="100" width="40" height="20" as="geometry" />
        </mxCell>
        <mxCell id="6lewU3z685MohC7zJiph-85" style="edgeStyle=orthogonalEdgeStyle;rounded=0;orthogonalLoop=1;jettySize=auto;html=1;exitX=0.5;exitY=1;exitDx=0;exitDy=0;entryX=1;entryY=0.5;entryDx=0;entryDy=0;strokeWidth=2;" parent="1" source="6lewU3z685MohC7zJiph-81" target="6lewU3z685MohC7zJiph-84" edge="1">
          <mxGeometry relative="1" as="geometry" />
        </mxCell>
        <mxCell id="6lewU3z685MohC7zJiph-81" value="combiner" style="rounded=0;whiteSpace=wrap;html=1;rotation=90;" parent="1" vertex="1">
          <mxGeometry x="195.75" y="94.5" width="75.25" height="17.5" as="geometry" />
        </mxCell>
        <mxCell id="6lewU3z685MohC7zJiph-93" style="edgeStyle=orthogonalEdgeStyle;rounded=0;orthogonalLoop=1;jettySize=auto;html=1;exitX=0.25;exitY=1;exitDx=0;exitDy=0;" parent="1" source="6lewU3z685MohC7zJiph-84" edge="1">
          <mxGeometry relative="1" as="geometry">
            <mxPoint x="60" y="380" as="targetPoint" />
          </mxGeometry>
        </mxCell>
        <mxCell id="6lewU3z685MohC7zJiph-94" value="irq" style="edgeLabel;html=1;align=center;verticalAlign=middle;resizable=0;points=[];" parent="6lewU3z685MohC7zJiph-93" vertex="1" connectable="0">
          <mxGeometry x="-0.0976" y="-1" relative="1" as="geometry">
            <mxPoint as="offset" />
          </mxGeometry>
        </mxCell>
        <mxCell id="6lewU3z685MohC7zJiph-84" value="saver" style="rounded=0;whiteSpace=wrap;html=1;" parent="1" vertex="1">
          <mxGeometry x="130" y="73.25" width="60" height="60" as="geometry" />
        </mxCell>
        <mxCell id="6lewU3z685MohC7zJiph-86" style="edgeStyle=orthogonalEdgeStyle;rounded=0;orthogonalLoop=1;jettySize=auto;html=1;exitX=0;exitY=0.5;exitDx=0;exitDy=0;shape=flexArrow;fillColor=#1ba1e2;strokeColor=#006EAF;" parent="1" source="6lewU3z685MohC7zJiph-87" edge="1">
          <mxGeometry relative="1" as="geometry">
            <mxPoint x="10" y="333" as="targetPoint" />
          </mxGeometry>
        </mxCell>
        <mxCell id="6lewU3z685MohC7zJiph-87" value="DMA" style="rounded=0;whiteSpace=wrap;html=1;" parent="1" vertex="1">
          <mxGeometry x="50" y="302.5" width="60" height="60" as="geometry" />
        </mxCell>
        <mxCell id="6lewU3z685MohC7zJiph-88" value="" style="shape=flexArrow;endArrow=classic;html=1;rounded=0;entryX=1;entryY=0.5;entryDx=0;entryDy=0;exitX=0;exitY=0.5;exitDx=0;exitDy=0;" parent="1" source="6lewU3z685MohC7zJiph-2" target="6lewU3z685MohC7zJiph-87" edge="1">
          <mxGeometry x="0.2129" y="40" width="50" height="50" relative="1" as="geometry">
            <mxPoint x="160" y="350" as="sourcePoint" />
            <mxPoint x="390" y="180" as="targetPoint" />
            <mxPoint as="offset" />
          </mxGeometry>
        </mxCell>
        <mxCell id="0K5I_2ZGSOi5SH-CKBbU-2" style="edgeStyle=orthogonalEdgeStyle;rounded=0;orthogonalLoop=1;jettySize=auto;html=1;exitX=0;exitY=0.75;exitDx=0;exitDy=0;entryX=0.323;entryY=-0.034;entryDx=0;entryDy=0;entryPerimeter=0;strokeWidth=2;" parent="1" source="6lewU3z685MohC7zJiph-75" target="6lewU3z685MohC7zJiph-81" edge="1">
          <mxGeometry relative="1" as="geometry" />
        </mxCell>
        <mxCell id="0K5I_2ZGSOi5SH-CKBbU-3" style="edgeStyle=orthogonalEdgeStyle;rounded=0;orthogonalLoop=1;jettySize=auto;html=1;exitX=0.5;exitY=0;exitDx=0;exitDy=0;entryX=0.828;entryY=0.001;entryDx=0;entryDy=0;entryPerimeter=0;strokeWidth=2;" parent="1" source="6lewU3z685MohC7zJiph-53" target="6lewU3z685MohC7zJiph-81" edge="1">
          <mxGeometry relative="1" as="geometry" />
        </mxCell>
        <mxCell id="0K5I_2ZGSOi5SH-CKBbU-4" value="core" style="text;html=1;align=center;verticalAlign=middle;whiteSpace=wrap;rounded=0;" parent="1" vertex="1">
          <mxGeometry x="226" width="60" height="30" as="geometry" />
        </mxCell>
      </root>
    </mxGraphModel>
  </diagram>
</mxfile>
